<svg width="878" height="486" viewBox="0 0 878 486" fill="none" xmlns="http://www.w3.org/2000/svg">
<g clip-path="url(#clip0_3_1357)">
<rect width="878" height="486" fill="white"/>
<rect width="879" height="486" fill="#462D56"/>
<path d="M741.852 402.973C734.254 403.117 727.189 402.129 720.182 400.745C715.683 399.85 711.863 397.499 708.436 394.515C701.683 388.648 697.281 381.291 694.765 372.761C693.275 367.718 692.11 362.632 692.055 357.314C692.013 353.093 692.406 348.927 693.921 344.943C695.018 342.064 696.209 339.223 697.277 336.332C699.746 329.651 704.118 324.489 709.939 320.521C713.003 318.434 716.147 316.464 719.372 314.612C722.327 312.924 725.619 312.08 728.94 311.603C737.491 310.375 746.207 311.028 754.48 313.515C760.997 315.435 766.34 319.036 770.81 324.101C775.934 329.88 779.853 336.624 782.337 343.938C784.903 351.493 784.65 359.238 783.004 366.949C781.818 372.517 780.273 377.966 776.706 382.591C774.866 384.975 773.037 387.367 771.219 389.767C770.582 390.611 769.932 391.434 769.358 392.299C765.982 397.47 761.098 400.319 755.193 401.661C750.822 402.676 746.337 403.118 741.852 402.973ZM739.935 397.524C743.498 397.305 747.06 397.132 750.618 396.849C754.248 396.566 757.679 395.494 760.558 393.253C762.9 391.48 765.063 389.483 767.016 387.289C772.081 381.414 775.381 374.559 777.373 367.08C779.032 360.846 779.522 354.519 778.074 348.18C775.964 339.021 771.215 331.398 764.361 325.042C760.966 321.871 756.844 319.584 752.357 318.381C746.411 316.728 740.236 316.048 734.073 316.368C729.291 316.63 724.58 317.415 720.393 319.947C717.401 321.762 714.442 323.649 711.606 325.696C707.913 328.364 704.937 331.732 703.249 336.016C701.632 340.114 700.075 344.246 698.8 348.458C697.361 353.215 697.31 358.191 697.981 363.049C699.246 372.277 703.197 380.929 709.344 387.926C713.016 392.185 717.557 395.081 723.209 396.005C728.734 396.961 734.328 397.469 739.935 397.524Z" fill="#F5F5F5"/>
<path d="M757.443 374.335C757.952 374.503 758.445 374.714 758.916 374.969C761.452 376.483 763.623 378.536 765.277 380.983C766.273 382.481 766.159 383.646 765.019 384.503C763.711 385.491 762.204 385.347 761.136 383.954C759.698 382.054 757.931 380.426 755.919 379.147C755.427 378.864 755.051 378.416 754.855 377.883C754.66 377.35 754.659 376.765 754.851 376.231C755.044 375.691 755.394 375.223 755.856 374.885C756.318 374.547 756.871 374.355 757.443 374.335Z" fill="#F5F5F5"/>
<path d="M720.558 377.889C720.416 378.31 720.246 378.72 720.047 379.118C718.604 381.73 716.325 383.617 714.176 385.58C712.733 386.901 711.133 386.576 710.251 385.132C709.957 384.734 709.806 384.249 709.819 383.754C709.833 383.259 710.012 382.783 710.327 382.401C710.928 381.547 711.62 380.76 712.391 380.055C713.792 378.906 715.004 377.544 715.983 376.02C716.284 375.539 716.75 375.184 717.293 375.019C717.836 374.855 718.42 374.892 718.937 375.125C719.963 375.505 720.592 376.446 720.558 377.889Z" fill="#F5F5F5"/>
<path d="M768.248 360.049C767.336 360.049 766.425 360.091 765.517 360.049C763.804 359.947 762.837 359.002 762.812 357.47C762.786 355.87 763.656 354.963 765.437 354.866C768.088 354.717 770.74 354.593 773.393 354.494C774.066 354.453 774.728 354.674 775.242 355.11C775.755 355.547 776.079 356.166 776.145 356.837C776.194 357.151 776.179 357.472 776.102 357.78C776.025 358.089 775.886 358.379 775.695 358.633C775.504 358.887 775.264 359.1 774.989 359.26C774.714 359.42 774.409 359.523 774.094 359.563C772.165 359.876 770.207 359.985 768.261 360.188L768.248 360.049Z" fill="#F5F5F5"/>
<path d="M739.914 325.375C739.99 326.21 740.024 327.048 740.016 327.887C740.018 328.522 739.781 329.136 739.352 329.605C738.922 330.074 738.332 330.365 737.698 330.419C736.458 330.537 735.339 329.68 735.01 328.279C734.877 327.595 734.792 326.903 734.757 326.207C734.6 324.396 734.427 322.59 734.335 320.775C734.282 320.085 734.372 319.393 734.6 318.74C735.023 317.672 736.002 317.221 737.162 317.356C737.725 317.409 738.253 317.651 738.66 318.044C739.066 318.437 739.327 318.956 739.399 319.517C739.592 320.476 739.726 321.445 739.8 322.421C739.868 323.396 739.8 324.379 739.8 325.375H739.914Z" fill="#F5F5F5"/>
<path d="M705.739 354.498C706.858 354.498 707.634 354.426 708.39 354.498C709.977 354.675 710.884 355.676 710.855 357.086C710.855 357.757 710.588 358.401 710.113 358.876C709.638 359.351 708.994 359.618 708.322 359.618C705.819 359.774 703.316 359.918 700.809 359.939C698.952 359.939 697.994 358.951 698.003 357.301C698.003 355.807 698.75 354.929 700.239 354.806C702.194 354.659 704.144 354.583 705.739 354.498Z" fill="#F5F5F5"/>
<path d="M716.312 339.046C715.726 338.835 715.169 338.551 714.653 338.202C712.809 336.695 710.998 335.146 709.251 333.53C707.985 332.373 707.938 331.204 708.884 330.005C709.766 328.891 711.137 328.638 712.425 329.642C714.535 331.272 716.531 333.019 718.503 334.813C718.882 335.139 719.139 335.584 719.234 336.075C719.328 336.566 719.253 337.075 719.022 337.518C718.574 338.46 717.853 339.046 716.312 339.046Z" fill="#F5F5F5"/>
<path d="M758.025 338.206C756.628 338.269 755.877 337.83 755.354 336.995C755.094 336.619 754.962 336.169 754.98 335.712C754.997 335.256 755.163 334.817 755.451 334.462C755.849 333.977 756.285 333.524 756.755 333.107C758.092 331.779 759.432 330.454 760.777 329.131C761.057 328.817 761.369 328.534 761.71 328.287C762.162 328.012 762.692 327.892 763.218 327.945C763.745 327.998 764.239 328.222 764.627 328.583C765.441 329.3 765.766 330.191 765.357 331.225C765.173 331.751 764.886 332.234 764.513 332.647C762.824 334.336 761.136 335.965 759.363 337.556C758.959 337.849 758.506 338.069 758.025 338.206Z" fill="#F5F5F5"/>
<path d="M734.626 388.142C734.626 387.091 734.571 386.032 734.626 384.993C734.719 383.579 735.542 382.744 736.825 382.617C738.108 382.49 739.484 383.267 739.589 384.622C739.771 386.988 739.771 389.364 739.589 391.729C739.558 392.064 739.459 392.389 739.298 392.684C739.137 392.979 738.917 393.239 738.652 393.446C738.388 393.653 738.083 393.805 737.758 393.891C737.433 393.976 737.094 393.995 736.761 393.945C735.449 393.764 734.651 392.827 734.596 391.295C734.554 390.244 734.596 389.184 734.596 388.142H734.626Z" fill="#F5F5F5"/>
<path d="M693.973 52.2198C698.993 49.5078 704.053 49.62 709.211 50.6381C710.725 50.9369 712.265 51.1153 713.799 51.2833C715.674 51.4888 716.636 52.8086 716.208 54.673C715.755 56.4599 714.741 58.0548 713.316 59.2247C710.241 61.9746 706.305 63.5694 702.182 63.7361C701.353 63.7818 700.526 63.806 699.507 63.8404C703.806 69.0577 704.587 75.188 705.52 81.323C706.034 84.8668 706.733 88.3812 707.615 91.8518C708.641 95.884 708.627 100.111 707.572 104.136C705.92 110.869 702.699 116.705 697.409 121.239C690.366 127.27 682.267 129.559 673.045 127.827C664.457 126.214 658.057 121.55 653.716 114.125C650.933 109.346 649.63 103.849 649.973 98.3294C650.257 92.7069 651.922 87.4326 654.275 82.3847C655.738 79.2473 658.214 76.9158 661.018 74.9883C664.838 72.3418 668.52 69.5627 671.815 66.2212C674.736 63.2695 677.997 60.6502 682.061 59.3314C683.407 58.924 684.777 58.599 686.162 58.3582C686.475 58.3364 686.773 58.2159 687.014 58.0139C687.254 57.8119 687.423 57.5389 687.499 57.2342C689.045 51.5947 689.742 45.9467 687.722 40.2587C687.56 39.8673 687.426 39.4646 687.323 39.0536C687.187 38.3936 687.295 37.7066 687.628 37.1204C687.96 36.5342 688.494 36.0887 689.131 35.8666C690.447 35.4468 691.52 35.9436 692.165 37.4272C693.708 40.9618 694.199 44.7198 694.157 48.5521C694.111 49.6807 694.033 50.7999 693.973 52.2198ZM702.079 104.44C703.28 100.821 703.371 96.9587 702.598 93.0174C701.674 88.1857 700.815 83.3421 699.891 78.5104C699.622 77.0584 699.278 75.6211 698.863 74.2039C697.941 71.1099 696.568 68.189 693.689 66.4884C687.504 62.8306 684.621 62.4955 679.274 66.7397C676.925 68.6012 674.924 70.9208 672.868 73.1274C670.823 75.3492 668.482 77.2787 665.911 78.8613C664.396 79.7509 663.009 80.8431 661.789 82.1077C655.898 88.4821 653.728 96.0257 655.581 104.491C658.191 116.448 668.373 124.332 681.037 122.945C690.321 121.917 699.484 114.598 702.062 104.435L702.079 104.44ZM695.705 58.0316C700.971 59.0148 706.668 58.5099 708.644 56.0814C703.761 54.1159 697.932 54.9971 695.705 58.0316Z" fill="#F5F5F5"/>
<path d="M658.998 94.5807C659.527 92.7592 660.231 91.5219 662.001 91.3484C663.771 91.1749 665.092 92.4538 664.562 94.2002C662.835 99.8709 665.098 104.664 667.826 109.354C668.156 109.942 668.613 110.448 669.164 110.837C669.715 111.226 670.345 111.487 671.009 111.602C671.357 111.661 671.696 111.768 672.014 111.92C672.516 112.18 672.923 112.592 673.178 113.096C673.433 113.601 673.522 114.173 673.433 114.731C673.38 115.266 673.125 115.761 672.72 116.115C672.315 116.469 671.79 116.656 671.252 116.637C670.03 116.581 668.63 116.421 667.651 115.784C666.107 114.819 664.758 113.572 663.676 112.107C660.358 107.321 658.336 102.064 658.776 96.1034C658.803 95.5114 658.955 94.8811 658.998 94.5807Z" fill="#F5F5F5"/>
<path d="M119.028 394.243C119.043 391.271 118.912 388.483 119.1 385.725C119.633 377.952 122.609 371.128 126.573 364.645C132.354 355.176 140.884 349.833 150.98 346.838C154.767 345.71 158.626 344.851 162.529 344.268C168.713 343.35 174.696 344.502 180.447 347.109C185.916 349.584 190.85 352.989 195.507 356.786C200.735 361.049 203.938 366.834 205.962 373.316C206.71 375.755 207.317 378.238 207.778 380.75C208.065 382.241 208.64 383.026 210.175 383.25C213.347 383.714 214.958 385.894 215.459 389.039C216.047 392.723 216.341 396.44 215.823 400.147C215.605 401.728 215.063 402.964 213.438 403.401C212.353 403.69 211.944 404.443 211.874 405.613C211.439 413.454 207.346 418.485 200.486 421.216C194.673 423.532 188.58 424.407 182.362 424.733C178.046 424.953 173.732 425.406 169.447 425.992C163.763 426.771 158.121 427.844 152.443 428.669C146.893 429.474 141.321 429.79 135.762 428.511C129.077 426.982 124.569 422.846 122.227 416.188C121.68 414.627 121.106 413.411 119.421 412.641C116.893 411.491 115.942 408.869 115.368 406.247C114.977 404.351 114.729 402.428 114.628 400.494C114.419 397.176 115.221 395.962 118.189 394.627L119.028 394.243ZM202.472 383.145C202.059 378.589 200.667 374.59 198.841 370.753C196.517 365.843 192.917 361.695 188.447 358.78C185.854 357.079 183.312 355.275 180.624 353.744C174.722 350.264 167.828 349.078 161.191 350.4C153.062 351.927 145.546 354.74 138.943 359.889C130.771 366.261 125.769 374.64 124.678 385.338C124.433 387.746 124.087 390.221 125.047 392.772L127.772 392.471C148.917 390.133 170.046 387.79 191.159 385.441C194.188 385.106 197.183 384.47 200.189 383.927C200.966 383.711 201.728 383.444 202.47 383.126L202.472 383.145ZM161.623 394.526C151.014 395.699 140.397 396.811 129.799 398.086C127.458 398.345 125.187 399.191 122.895 399.815C122.397 399.974 121.931 400.222 121.516 400.548C120.147 401.538 120.023 402.752 121.181 404.067C121.594 404.517 122.062 404.91 122.572 405.235C125.169 406.99 128.25 407.804 131.329 407.547C133.933 407.339 136.527 406.996 139.12 406.686L182.252 401.609C183.512 401.47 184.772 401.33 186.04 401.27C190.727 400.963 195.431 400.85 200.093 400.321C202.872 400.014 205.671 399.4 208.033 397.536C209.876 396.086 211.031 394.547 209.83 392.032C209.614 391.588 209.712 390.963 209.652 390.421C209.528 389.296 208.929 388.791 207.81 388.928C205.232 389.251 202.646 389.499 200.071 389.854C196.062 390.405 192.12 391.108 188.126 391.582C179.285 392.597 170.453 393.531 161.621 394.507L161.623 394.526ZM206.326 405.204C205.354 405.246 204.766 405.245 204.185 405.305C198.779 405.856 193.365 406.379 187.965 406.985C168.61 409.147 149.264 411.326 129.927 413.523L127.18 413.826C128.918 419.361 132.251 422.639 137.545 423.159C140.368 423.359 143.201 423.267 146.002 422.885C154.752 421.946 163.489 420.849 172.232 419.85C174.912 419.554 177.587 419.207 180.255 419.165C185.104 419.141 189.929 418.529 194.631 417.341C197.595 416.545 200.451 415.419 202.764 413.19C204.912 411.106 206.034 408.536 206.324 405.186L206.326 405.204Z" fill="#F5F5F5"/>
<path d="M156.971 63.4113C158.219 58.7086 159.305 54.3191 160.558 49.9902C161.851 45.525 165.72 43.3176 170.271 44.1864C172.011 44.4925 173.665 45.1651 175.125 46.1597C176.584 47.1542 177.816 48.4479 178.737 49.9549C179.277 50.8684 179.516 51.9288 179.419 52.9856C179.262 54.3444 178.126 55.1273 176.807 55.3799C175.615 55.6072 174.721 54.9808 174.039 54.0312C173.6 53.415 173.211 52.7634 172.741 52.1774C171.65 50.8136 170.18 50.3792 168.493 50.4752C168.024 50.4622 167.563 50.6033 167.182 50.877C166.801 51.1507 166.52 51.5418 166.382 51.9905C165.523 54.6239 164.698 57.2673 163.907 59.9209C163.821 60.4213 163.782 60.9286 163.79 61.4363C163.659 62.7344 164.139 63.3456 165.508 63.6487C169.554 64.5114 173.24 66.5912 176.07 69.6091C178.988 72.6734 180.828 76.6044 181.313 80.8076C181.667 83.6313 181.753 86.5004 181.843 89.3492C182.045 95.8198 182.298 102.295 182.308 108.766C182.308 118.252 180.843 127.506 177.398 136.391C176.188 139.537 174.373 142.415 172.054 144.862C169.236 147.847 166.538 150.994 162.937 153.1C159.002 155.404 154.855 156.556 150.218 155.737C146.877 155.182 143.858 153.417 141.737 150.777C140.148 148.823 138.689 146.768 137.368 144.625C135.084 140.978 132.609 137.507 129.407 134.603C128.596 133.871 127.841 133.079 127.149 132.234C125.366 130.042 124.325 127.627 125.497 124.783C127.407 120.162 127.487 115.348 127.402 110.433C127.239 103.385 129.519 96.4979 133.857 90.9404C136.731 87.1974 138.812 83.2373 139.686 78.5548C141.247 70.2001 148.132 64.5882 156.204 63.5275C156.532 63.4871 156.855 63.4264 156.971 63.4113ZM176.045 109.094C175.893 102.205 175.843 95.3097 175.54 88.4249C175.383 84.8335 174.964 81.2319 173.605 77.8173C171.822 73.3369 168.705 70.3567 163.922 69.6344C161.745 69.306 159.456 69.6798 157.219 69.7556C153.284 69.897 150.359 71.7761 148.48 75.1856C147.569 76.8877 146.806 78.6657 146.202 80.4995C144.798 84.726 142.923 88.7808 140.61 92.5871C139.504 94.3752 138.443 96.1886 137.453 98.0373C135.13 102.376 133.468 106.897 133.488 111.933C133.488 115.206 133.322 118.5 133.14 121.758C133.084 122.829 132.69 123.874 132.559 124.945C132.448 125.824 132.225 126.839 132.559 127.582C133.177 128.939 133.95 130.22 134.862 131.401C135.872 132.815 137.171 134.052 138.176 135.482C139.964 138.007 141.565 140.695 143.363 143.22C144.466 144.798 145.705 146.275 147.066 147.635C150.551 151.05 154.688 151.373 158.684 148.519C160.353 147.394 161.85 146.033 163.129 144.478C171.089 134.057 176.636 122.682 176.045 109.094Z" fill="#F5F5F5"/>
<path d="M158.093 140.695C158.123 142.311 157.123 143.726 155.789 144.018C155.099 144.167 154.378 144.085 153.739 143.784C153.1 143.482 152.578 142.979 152.254 142.352C151.243 140.553 150.233 138.755 149.076 137.038C147.798 135.118 147.778 133.603 149.213 132.375C149.53 132.098 149.902 131.89 150.304 131.764C150.706 131.639 151.13 131.598 151.549 131.646C151.968 131.693 152.372 131.828 152.736 132.04C153.1 132.253 153.416 132.539 153.663 132.881C155.208 134.8 156.426 137.002 157.704 139.124C157.915 139.624 158.046 140.154 158.093 140.695Z" fill="#F5F5F5"/>
<path d="M161.755 124.814C161.789 125.489 161.593 126.157 161.2 126.707C160.806 127.257 160.238 127.658 159.588 127.845C158.072 128.244 156.557 127.723 156.052 126.223C155.412 124.309 154.147 122.665 152.461 121.556C151.339 120.783 151.167 119.03 151.758 117.878C152.075 117.288 152.578 116.819 153.19 116.545C153.801 116.27 154.486 116.207 155.138 116.363C158.179 117.065 161.78 121.672 161.755 124.814Z" fill="#F5F5F5"/>
<path d="M148.48 83.8384C148.762 83.2067 149.101 82.6015 149.49 82.03C150.501 80.7167 151.642 79.4792 152.718 78.2113C154.107 76.5747 155.653 76.2161 157.072 77.2011C158.492 78.1861 158.901 80.0954 157.628 81.833C156.386 83.5058 155.017 85.0798 153.531 86.5408C153.09 87.0003 152.5 87.2892 151.866 87.3567C151.232 87.4241 150.595 87.2658 150.066 86.9095C149.046 86.3286 148.521 85.4497 148.48 83.8384Z" fill="#F5F5F5"/>
<path d="M168.857 109.423C168.907 110.137 168.702 110.847 168.278 111.425C167.855 112.002 167.24 112.412 166.543 112.58C165.889 112.725 165.205 112.654 164.596 112.376C163.986 112.098 163.483 111.628 163.164 111.039C162.24 109.473 161.285 107.917 160.33 106.367C159.935 105.817 159.751 105.144 159.811 104.469C159.871 103.795 160.172 103.165 160.659 102.694C161.076 102.173 161.661 101.813 162.314 101.676C162.968 101.539 163.648 101.632 164.24 101.942C166.185 102.942 168.786 107.21 168.857 109.423Z" fill="#F5F5F5"/>
<path d="M167.074 75.1401C167.666 75.304 168.239 75.5274 168.786 75.8069C169.921 76.4459 170.901 77.3264 171.658 78.386C172.414 79.4457 172.929 80.6586 173.165 81.9391C173.316 82.6412 173.212 83.374 172.873 84.0067C172.533 84.6395 171.98 85.1312 171.312 85.3941C170.992 85.5546 170.643 85.6492 170.285 85.6724C169.928 85.6957 169.57 85.6469 169.231 85.5292C168.893 85.4115 168.582 85.2271 168.317 84.987C168.051 84.7468 167.836 84.4559 167.685 84.1313C167.062 82.5977 165.998 81.2829 164.629 80.353C163.619 79.6913 163.321 78.4386 163.775 77.1859C164.23 75.9332 165.437 75.1502 167.074 75.1401Z" fill="#F5F5F5"/>
<path d="M148.485 96.8757C148.485 95.2643 152.193 90.0818 153.678 89.5413C154.19 89.3398 154.752 89.302 155.287 89.4331C155.822 89.5643 156.302 89.858 156.663 90.2737C157.527 91.1476 158.083 92.2942 157.396 93.451C156.259 95.3912 155.002 97.2587 153.632 99.0426C153.275 99.5172 152.761 99.8503 152.181 99.9833C151.602 100.116 150.994 100.041 150.465 99.77C149.876 99.5523 149.369 99.1568 149.014 98.6383C148.659 98.1198 148.475 97.5038 148.485 96.8757Z" fill="#F5F5F5"/>
<path d="M135.413 116.388C135.498 115.92 135.669 115.471 135.918 115.065C137.121 113.467 138.44 111.96 139.863 110.554C141.297 109.231 142.894 109.428 144.096 110.711C145.298 111.994 145.283 113.519 144.015 114.994C142.985 116.196 141.937 117.389 140.873 118.57C139.863 119.697 138.767 119.99 137.514 119.52C136.865 119.306 136.307 118.882 135.926 118.315C135.546 117.748 135.365 117.07 135.413 116.388Z" fill="#F5F5F5"/>
<path d="M514.657 396.251C514.881 408.21 510.789 418.454 502.38 426.985C497.08 432.359 490.597 435.52 483.312 437.144C478.676 438.192 473.944 438.766 469.191 438.855C466.23 438.905 463.269 439.204 460.316 439.116C455.332 438.963 450.386 438.406 445.821 436.267C443.271 435.056 440.819 433.648 438.487 432.056C434.724 429.502 431.094 426.752 427.427 424.061C425.412 422.582 425.533 420.323 427.776 419.335C430.832 417.981 433.212 415.829 435.281 413.312C438.383 409.533 441.336 405.625 444.451 401.85C446.287 399.619 448.313 397.543 450.245 395.391C455.907 389.078 461.561 382.761 467.206 376.44C470.348 372.864 473.839 369.61 477.627 366.726C480.904 364.188 483.741 361.127 486.024 357.668C487.27 355.849 488.595 354.088 489.858 352.269C490.146 351.805 490.393 351.317 490.597 350.811C491.428 349.033 492.674 348.531 494.439 349.453C498.651 351.723 502.24 354.995 504.888 358.98C508.759 364.579 510.885 370.9 512.277 377.474C513.215 381.91 513.938 386.396 514.607 390.885C514.856 392.638 514.657 394.461 514.657 396.251ZM493.945 355.134C492.192 357.464 490.497 359.549 488.981 361.759C486.111 365.985 482.593 369.733 478.557 372.864C476.074 374.831 473.755 376.998 471.625 379.343C466.33 385.058 461.442 391.163 455.897 396.617C447.869 404.508 441.062 413.425 433.835 422.271C436.472 424.024 439.201 425.872 441.967 427.67C448.06 431.607 454.718 433.854 461.99 434.054C467.983 434.253 473.982 433.862 479.898 432.887C488.325 431.445 495.622 428.073 501.03 421.12C506.317 414.322 509.295 406.738 509.677 398.12C509.955 391.865 508.913 385.773 507.634 379.696C506.508 374.347 504.971 369.147 502.284 364.33C500.276 360.644 497.417 357.492 493.945 355.134Z" fill="#F5F5F5"/>
<path d="M462.733 429.764C458.609 429.947 454.495 429.213 450.689 427.612C448.191 426.593 445.954 425.024 444.143 423.023C442.453 421.113 442.482 419.871 444.214 417.985C453.667 407.602 463.061 397.14 472.572 386.799C478.076 380.81 483.962 375.184 490.194 369.958C490.709 369.522 491.154 369.011 491.515 368.442C492.823 366.365 494.538 366.078 496.499 367.756C500.199 370.895 502.958 374.996 504.473 379.605C506.94 386.944 506.849 394.341 504.888 401.759C503.277 407.926 500.561 413.533 495.917 418.01C492.25 421.549 487.827 423.945 483.096 425.772C476.713 428.244 470.134 429.872 462.733 429.764ZM500.831 390.931C501.599 386.059 498.467 376.283 494.418 373.106C487.515 378.721 481.186 384.971 474.927 391.795L500.831 390.931ZM448.874 420.718C450.361 421.549 451.673 422.379 453.098 422.998C457.251 424.772 461.666 424.776 466.077 424.51C467.738 424.41 467.896 424.178 467.854 422.433C467.738 417.487 467.572 412.54 467.439 407.594C467.397 406.082 467.439 404.57 467.368 403.059C467.289 402.242 467.168 401.429 467.007 400.625L448.874 420.718ZM490.51 415.734C485.077 409.504 479.907 403.474 472.331 399.873C472.572 407.764 472.805 415.439 473.046 423.301C479.334 421.74 485.086 419.534 490.51 415.755V415.734ZM494.223 412.316C497.545 409.293 500.81 400.978 500.735 396.143C500.079 396.143 499.41 396.143 498.742 396.143L479.969 396.663C479.831 396.646 479.692 396.646 479.554 396.663C479.213 396.762 478.885 396.891 478.37 397.078C484.479 401.543 489.584 406.701 494.223 412.32V412.316Z" fill="#F5F5F5"/>
<path d="M332.503 102.363C330.344 101.814 328.423 101.231 326.456 100.854C324.267 100.434 322.367 101.151 320.635 102.56C318.902 103.97 317.191 105.173 315.388 106.36C314.636 106.875 313.779 107.218 312.88 107.363C311.98 107.508 311.059 107.452 310.183 107.199C308.887 106.851 308.061 106.138 307.839 104.846C307.503 102.934 307 101.009 307 99.0879C307.038 91.5891 307.21 84.0861 307.419 76.5914C307.495 73.9157 309.709 72.9091 311.928 74.4441C313.765 75.7023 315.489 77.1576 317.38 78.2984C319.402 79.5104 321.574 80.4583 323.7 81.5152C324.168 81.7563 324.693 81.8617 325.217 81.8194C325.741 81.7772 326.243 81.589 326.665 81.2761C328.133 80.3576 329.635 79.502 331.279 78.5249C330.272 76.625 329.303 74.8719 328.402 73.0727C326.959 70.2208 325.546 67.3549 324.162 64.4751C323.917 63.9744 323.761 63.4352 323.7 62.8814C323.507 60.8892 325.101 59.5681 327.03 60.1301C327.832 60.3724 328.612 60.681 329.362 61.0528C334.072 63.3176 338.79 65.5697 343.471 67.8932C344.901 68.6225 346.278 69.4507 347.593 70.3718C349.208 71.479 350.949 71.5629 352.794 71.3616C362.18 70.2914 371.685 71.0765 380.768 73.6725C381.707 73.9409 382.491 74.7377 383.351 75.2829C384.211 75.8281 384.953 76.3314 385.796 76.7718C390.12 79.0323 394.457 81.2593 398.797 83.5115C399.294 83.7667 399.756 84.0838 400.173 84.4551C401.465 85.6294 401.431 87.2567 400.135 88.4394C399.225 89.2782 398.324 90.117 397.275 91.0858C398.395 91.8575 399.33 92.4236 400.181 93.0989C402.429 94.8771 402.652 97.0119 400.521 98.9285C399.119 100.174 397.53 101.192 395.811 101.944C391.861 103.684 387.797 105.173 383.796 106.805C381.001 107.913 378.039 108.539 375.034 108.658C370.362 108.889 365.686 109.002 361.01 109.078C358.712 109.103 356.396 108.902 354.111 108.768C353.215 108.746 352.331 108.982 351.565 109.447C347.103 111.745 342.59 113.955 338.069 116.157C334.81 117.734 331.518 119.252 328.217 120.75C327.437 121.049 326.633 121.282 325.814 121.446C324.736 121.723 323.889 121.291 323.231 120.481C322.894 120.12 322.685 119.657 322.637 119.166C322.589 118.674 322.703 118.18 322.962 117.759C323.556 116.662 324.259 115.626 325.059 114.668C327.425 112.064 329.413 109.258 330.641 105.932C331.082 104.817 331.749 103.819 332.503 102.363ZM394.234 86.8457C393.73 86.4747 393.202 86.1371 392.653 85.835C388.103 83.738 383.531 81.641 378.981 79.544C378.042 79.1246 377.161 78.5458 376.234 78.0887C375.691 77.8044 375.115 77.5888 374.519 77.447C366.161 75.6854 357.539 75.5686 349.137 77.1031C341.294 78.571 334.202 81.6368 328.381 87.2483C326.98 88.5988 325.982 88.7623 324.225 87.8564C322.128 86.7702 320.031 85.6043 317.992 84.4216C316.264 83.4234 314.574 82.3498 312.855 81.3013C312.716 81.5823 312.607 81.7207 312.607 81.8213C312.607 87.5209 312.54 93.2205 312.607 98.9201C312.607 100.598 313.866 101.286 315.333 100.48C316.223 99.9333 317.044 99.2814 317.778 98.5385C321.473 95.1413 325.592 94.1306 330.306 96.2192C332.663 97.2677 335.058 98.2407 337.398 99.3311C343.626 102.238 350.114 103.844 357.042 103.626C361.513 103.483 365.988 103.592 370.463 103.563C373.759 103.538 377.043 103.211 380.155 102.133C384.5 100.631 388.77 98.8991 393.068 97.2593C393.198 97.2061 393.321 97.14 393.438 97.0622C394.318 96.4876 394.377 96.0221 393.584 95.242C392.871 94.5416 392.108 93.8832 391.299 93.145C391.164 93.5015 391.089 93.7657 390.972 94.009C389.571 96.8567 386.92 98.0394 383.397 97.3893C380.139 96.7854 378.465 95.0575 378.419 91.6771C378.426 90.0178 378.779 88.3781 379.455 86.8625C380.508 84.4509 382.81 83.7883 385.23 84.8494C385.61 85.0146 386.001 85.1547 386.4 85.2688C389.336 86.1453 391.492 87.6845 391.508 91.3081L394.234 86.8457ZM337.197 104.959C335.397 107.245 334.701 109.908 333.422 112.785C337.197 110.823 340.698 109.296 344.238 107.384L337.197 104.959ZM332.235 68.3042L331.816 68.6187C333.12 71.0177 334.429 73.4208 335.771 75.8953L342.175 73.2572C339 71.0344 335.481 69.9398 332.239 68.3042H332.235ZM383.791 89.9534C383.41 92.0084 383.674 92.4698 385.163 92.2978C385.528 92.2559 386.098 91.8784 386.132 91.5849C386.125 91.3652 386.067 91.1502 385.962 90.9571C385.857 90.7641 385.709 90.5984 385.528 90.4735C384.974 90.226 384.39 90.0511 383.791 89.9534Z" fill="#F5F5F5"/>
<path d="M840.788 141.119C840.138 143.443 839.623 145.818 838.802 148.082C837.674 151.197 836.399 154.269 835.026 157.287C833.021 161.691 829.324 163.744 824.663 164.251C821.85 164.543 819.007 164.357 816.256 163.701C812.888 162.917 809.546 162.019 806.194 161.168C802.747 160.291 799.272 159.515 795.88 158.5C793.224 157.719 790.61 156.74 788.233 155.277C787.304 154.703 786.417 154.065 785.578 153.366C783.049 151.238 781.8 148.468 781.935 145.183C782.025 142.964 782.365 140.758 782.62 138.557C782.932 135.892 783.224 133.224 783.617 130.573C784.055 127.609 784.594 124.658 785.091 121.704C785.257 120.716 785.411 119.728 785.6 118.75C786.023 116.531 787.384 115.006 789.275 113.902C791.717 112.475 794.431 111.872 797.176 111.402C802.578 110.499 808.106 110.684 813.435 111.946C814.634 112.219 815.88 112.346 817.029 112.744C821.187 114.127 825.508 115.118 829.304 117.51C833.428 120.109 837.253 123.153 840.711 126.589C841.336 127.252 841.881 127.986 842.335 128.776C842.77 129.472 843.051 130.254 843.159 131.068C843.267 131.882 843.198 132.71 842.959 133.496C842.247 136.04 841.534 138.584 840.821 141.134L840.788 141.119ZM833.495 138.649L833.874 138.431C835.705 137.978 837.134 136.861 838.346 135.485C839.809 133.821 839.931 131.912 838.897 130.026C838.288 128.909 837.51 127.892 836.591 127.012C835.169 125.679 833.535 124.577 832.05 123.304C827.011 118.982 820.749 117.396 814.604 115.613C812.219 114.923 809.697 114.677 807.226 114.312C804.165 113.832 801.052 113.786 797.978 114.177C796.071 114.435 794.224 114.915 792.551 115.918C788.952 118.078 787.035 123.12 790.526 127.026C791.676 128.311 792.979 129.451 794.405 130.421C797.815 132.728 801.596 134.298 805.491 135.606C807.389 136.243 809.287 136.879 811.172 137.552C814.863 138.869 818.568 140.151 822.481 140.613C826.335 141.072 829.989 140.246 833.495 138.649ZM787.655 128.719C787.537 132.123 786.72 135.104 786.084 138.124C785.658 140.261 785.413 142.43 785.354 144.609C785.245 147.748 786.589 150.232 789.254 151.984C791.271 153.311 793.478 154.322 795.8 154.984C799.611 156.051 803.464 156.97 807.293 157.974C809.41 158.527 811.498 159.188 813.629 159.691C816.24 160.308 818.877 160.842 821.579 160.78C825.134 160.693 828.348 159.724 830.657 156.831C831.58 155.649 832.393 154.385 833.086 153.055C835.048 149.377 836.189 145.402 837.235 141.383C837.262 141.285 837.197 141.162 837.202 141.195C834.837 141.882 832.527 142.545 830.219 143.217C826.034 144.448 821.849 144.282 817.701 143.087C814.902 142.289 812.146 141.35 809.364 140.491C805.403 139.294 801.527 137.829 797.764 136.108C794.002 134.356 790.566 132.181 787.649 128.72L787.655 128.719Z" fill="#F5F5F5"/>
<path d="M833.495 138.649C831.491 138.227 831.19 137.813 831.392 135.759C831.554 134.168 830.993 133.27 829.457 132.749C828.765 132.518 828.058 132.329 827.343 132.186C826.564 131.994 825.747 132.028 824.987 132.284C824.227 132.54 823.556 133.008 823.052 133.632C822.604 134.146 822.17 134.672 821.727 135.189C821.505 135.478 821.264 135.751 821.006 136.007C820.329 136.622 819.644 136.685 819.038 136.229C818.356 135.714 818.012 134.72 818.472 134.054C819.739 132.224 821.034 130.38 823.056 129.287C823.652 128.956 824.315 128.765 824.996 128.728C827.385 128.664 829.706 129.018 831.85 130.167C832.651 130.562 833.332 131.164 833.822 131.91C834.313 132.657 834.594 133.521 834.638 134.413C834.738 135.793 834.937 137.252 833.856 138.426L833.495 138.649Z" fill="#F5F5F5"/>
<path d="M807.504 125.166C807.69 126.329 807.9 127.487 808.042 128.654C808.068 129.063 808.021 129.473 807.902 129.865C807.685 130.742 807.245 131.127 806.534 131.138C806.12 131.167 805.709 131.046 805.378 130.796C805.046 130.547 804.815 130.186 804.727 129.78C804.675 129.375 804.678 128.965 804.736 128.561C804.812 127.947 804.741 127.325 804.528 126.744C804.316 126.163 803.969 125.641 803.516 125.22C802.543 124.245 801.27 123.627 799.902 123.467C799.542 123.401 799.172 123.433 798.828 123.559C798.485 123.684 798.182 123.899 797.949 124.182C797.072 125.225 796.177 126.242 795.324 127.321C794.93 127.813 794.508 128.206 793.855 128.162C793.203 128.119 792.594 127.909 792.238 127.292C791.883 126.676 792.044 126.068 792.485 125.529C793.578 124.193 794.616 122.808 795.776 121.534C797.203 119.97 799.015 119.677 801.034 120.165C803.724 120.824 805.912 122.139 807.226 124.671L807.504 125.166Z" fill="#F5F5F5"/>
<path d="M807.504 125.167L807.226 124.672C807.178 124.311 807.21 123.945 807.32 123.599C807.43 123.253 807.614 122.935 807.86 122.668C808.695 121.717 809.532 120.755 810.466 119.895C812.425 118.08 814.756 118.065 817.131 118.793C818.21 119.152 819.25 119.619 820.235 120.187C820.766 120.46 821.23 120.847 821.594 121.321C821.957 121.795 822.211 122.344 822.336 122.928C822.607 124.072 822.756 125.241 822.78 126.416C822.776 127.19 822.429 127.996 822.104 128.729C821.972 129.05 821.724 129.311 821.41 129.458C821.095 129.605 820.736 129.628 820.405 129.523C820.029 129.418 819.699 129.191 819.467 128.877C819.235 128.563 819.115 128.18 819.126 127.79C819.18 127.476 819.266 127.169 819.383 126.873C819.982 124.936 819.235 123.341 817.365 122.554C814.398 121.302 812.516 121.855 810.65 124.525C809.586 126.022 809.12 126.122 807.504 125.167Z" fill="#F5F5F5"/>
<path d="M97.4466 280.103C90.9175 280.29 85.3379 277.959 80.4518 273.712C77.8016 271.41 75.3528 268.95 73.5141 265.943C72.3319 264.015 71.6954 261.802 71.6724 259.54C71.6052 255.849 72.1617 252.172 73.3184 248.666C74.5787 244.836 76.9671 242.099 80.9122 240.897C81.0935 240.842 81.3438 240.842 81.4474 240.718C82.42 239.567 83.7495 239.728 85.03 239.743C88.1773 239.73 91.3201 239.983 94.4252 240.497C99.7458 241.455 103.921 244.315 107.495 248.223C108.325 249.149 109.103 250.12 109.826 251.132C113.25 255.837 114.018 261.088 112.962 266.702C112.53 269.158 111.663 271.518 110.401 273.669C107.918 277.818 104.295 279.999 99.4666 280.115C98.7846 280.115 98.1142 280.103 97.4466 280.103ZM106.33 273.37C107.098 272.439 107.714 271.393 108.157 270.27C109.547 266.676 109.498 262.95 109.101 259.218C108.813 256.628 107.481 254.458 106.004 252.361C102.822 247.846 98.6408 244.879 93.1447 244.033C90.5549 243.639 87.9334 243.515 85.3206 243.299C84.9456 243.306 84.5746 243.378 84.2243 243.512C83.5941 243.699 82.9812 243.95 82.3481 244.119C81.1971 244.427 80.0461 244.732 79.2461 245.774C79.3433 246.003 79.4618 246.223 79.6001 246.43C81.6144 248.913 83.6286 251.417 85.6861 253.86C87.3464 255.822 89.5103 256.991 92.0167 257.575C92.713 257.736 93.3892 257.972 94.0799 258.15C97.1444 258.985 99.3285 260.999 101.15 263.488C103.026 266.052 104.347 268.927 105.648 271.81L106.33 273.37ZM103.515 275.528C102.336 273.108 101.291 270.74 100.039 268.486C99.1955 267.041 98.2207 265.676 97.1272 264.409C95.6654 262.648 93.5389 262.133 91.421 261.684C89.5459 261.282 87.7951 260.436 86.3162 259.215C83.0502 256.573 80.3568 253.417 77.8822 250.05C77.6376 249.716 77.3642 249.405 76.9441 248.882C76.7197 249.587 76.5383 250.067 76.4117 250.565C75.8082 253.129 75.5183 255.758 75.5485 258.392C75.5175 261.101 76.4554 263.732 78.193 265.81C81.2653 269.69 85.198 272.802 89.6801 274.9C92.7706 276.339 95.9733 277.125 99.3975 276.823C100.85 276.708 102.258 276.266 103.515 275.528Z" fill="#F5F5F5"/>
<path d="M80.2417 278.768C88.0427 279.156 94.6553 283.613 95.5186 292.197C96.0049 297.04 93.2655 302.102 88.3621 303.276C84.8774 304.11 81.6028 303.33 78.6418 301.448C74.6132 298.885 72.2652 295.029 71.2264 290.445C70.9273 289.2 70.9245 287.903 71.2184 286.658C71.5123 285.412 72.0946 284.253 72.9183 283.274C73.7298 282.275 74.501 281.196 75.488 280.396C76.9699 279.194 78.7483 278.621 80.2417 278.768ZM91.8382 295.316C92.5461 291.44 90.6124 286.756 87.5996 284.747C86.0258 283.65 84.2432 282.888 82.3625 282.508C80.8805 282.221 79.3353 282.025 77.9828 283.015C78.9957 286.031 80.7338 288.177 83.6746 289.53C85.8558 290.534 87.7521 292.168 89.7491 293.558C90.4426 294.045 91.0497 294.649 91.8382 295.316ZM75.6232 285.918C74.9197 287.203 74.7265 288.705 75.0823 290.125C76.0203 294.571 78.6418 297.67 82.8516 299.333C85.1853 300.251 87.496 300.059 89.7405 298.617C89.165 297.613 88.3938 296.925 87.6053 296.246C85.5911 294.519 83.289 293.253 80.9122 292.163C79.1637 291.357 77.736 289.988 76.8577 288.275C76.4664 287.556 76.1009 286.831 75.6232 285.918Z" fill="#F5F5F5"/>
<path d="M125.891 279.389C126.846 279.389 127.802 279.389 128.769 279.389C129.175 279.382 129.576 279.48 129.934 279.673C130.292 279.866 130.594 280.147 130.812 280.491C131.612 281.616 132.67 282.574 133.344 283.762C136.313 289 135.735 297.503 127.917 301.154C124.566 302.723 120.811 303.214 117.169 302.559C114.217 302.069 112.332 300.337 111.388 297.609C110.197 294.173 110.459 290.821 112.427 287.685C113.189 286.47 113.929 285.236 114.729 284.053C116.795 281.035 119.698 279.524 123.321 279.374C124.185 279.34 125.048 279.374 125.894 279.374L125.891 279.389ZM130.938 286.87C129.525 289.371 127.289 290.812 124.895 292.073C123.457 292.833 122.032 293.612 120.602 294.375C119.396 294.988 118.43 295.988 117.86 297.215C117.489 298.035 117.598 298.409 118.484 298.573C119.74 298.838 121.022 298.966 122.306 298.953C129.543 298.703 132.481 292.378 130.938 286.879V286.87ZM114.588 295.215C117.267 291.814 117.296 292.214 121.494 289.846C122.867 289.072 124.259 288.329 125.6 287.5C126.702 286.805 127.567 285.793 128.084 284.597C128.616 283.426 128.403 282.96 127.14 282.917C125.612 282.845 124.082 282.876 122.559 283.009C121.671 283.08 120.812 283.354 120.047 283.809C119.282 284.263 118.631 284.887 118.145 285.633C117.503 286.585 116.907 287.578 116.179 288.462C114.516 290.476 114.211 292.761 114.588 295.227V295.215Z" fill="#F5F5F5"/>
<path d="M129.462 264.676C129.35 266.057 129.266 267.444 129.114 268.82C128.826 271.43 127.58 273.404 125.203 274.615C122.982 275.746 120.7 276.342 118.173 275.832C114.45 275.096 113.132 272.362 113.359 269.133C113.46 268.038 113.635 266.951 113.883 265.879C114.054 264.985 114.414 264.138 114.938 263.394C115.462 262.649 116.138 262.025 116.922 261.563C118.87 260.34 121.074 259.581 123.362 259.344C124.149 259.25 124.947 259.333 125.698 259.589C126.448 259.844 127.132 260.265 127.698 260.82C127.757 260.896 127.825 260.964 127.9 261.024C129.324 261.847 129.715 263.116 129.462 264.676ZM124.282 262.797C122.445 262.903 120.666 263.484 119.12 264.483C117.322 265.611 116.953 267.421 116.899 269.341C118.838 267.767 120.74 266.262 122.591 264.696C123.149 264.224 123.586 263.591 124.277 262.797H124.282ZM119.339 272.35C123.103 272.926 126.185 270.215 125.439 267.059C123.278 268.667 120.985 270.112 119.333 272.35H119.339Z" fill="#F5F5F5"/>
</g>
<defs>
<clipPath id="clip0_3_1357">
<rect width="878" height="486" fill="white"/>
</clipPath>
</defs>
</svg>
