<svg width="37" height="37" viewBox="0 0 37 37" fill="none" xmlns="http://www.w3.org/2000/svg">
<rect width="36.1734" height="36.1734" rx="10" fill="#C18153"/>
<path d="M9.63366 8.96097H17.8657C20.6843 8.96097 22.7843 9.37164 24.1657 10.193C25.547 10.9956 26.2377 12.4423 26.2377 14.533C26.2377 16.8476 25.3977 18.4436 23.7177 19.321C22.1497 20.1236 19.9563 20.525 17.1377 20.525H16.9137V28.029H20.4137V28.561H9.63366V28.029H11.4537V9.49297H9.63366V8.96097ZM16.9137 9.49297V19.993H17.5017C18.6217 19.993 19.3963 19.6103 19.8257 18.845C20.255 18.0796 20.4697 16.8383 20.4697 15.121V13.777C20.4697 12.1903 20.2643 11.0796 19.8537 10.445C19.4617 9.81031 18.7337 9.49297 17.6697 9.49297H16.9137Z" fill="white"/>
</svg>
